<?xml version="1.0" standalone="no"?>
<!DOCTYPE svg PUBLIC "-//W3C//DTD SVG 20010904//EN"
 "http://www.w3.org/TR/2001/REC-SVG-20010904/DTD/svg10.dtd">
<svg version="1.0" xmlns="http://www.w3.org/2000/svg"
 width="512.000000pt" height="512.000000pt" viewBox="0 0 512.000000 512.000000"
 preserveAspectRatio="xMidYMid meet">

<g transform="translate(0.000000,512.000000) scale(0.100000,-0.100000)"
fill="#000000" stroke="none">
<path d="M2023 3993 l-523 -3 0 -135 c0 -111 3 -135 14 -135 8 0 18 5 21 10
10 17 71 11 88 -8 21 -23 22 -75 2 -92 -17 -14 -55 -16 -97 -5 l-28 7 0 -116
c0 -94 3 -116 14 -116 8 0 18 5 21 10 10 16 72 12 89 -6 19 -19 21 -64 4 -87
-14 -19 -47 -23 -95 -12 l-33 8 0 -117 c0 -94 3 -116 14 -116 8 0 18 5 21 10
10 16 72 12 89 -6 19 -19 21 -64 4 -87 -14 -19 -47 -23 -95 -12 l-33 8 0 -111
c0 -109 8 -138 33 -113 19 19 85 14 97 -8 15 -29 12 -67 -6 -85 -17 -18 -79
-22 -89 -6 -3 6 -13 10 -21 10 -11 0 -14 -21 -14 -114 0 -63 4 -117 9 -120 5
-3 22 1 39 9 21 11 37 13 55 6 40 -16 51 -75 19 -104 -20 -19 -77 -23 -87 -7
-3 6 -13 10 -21 10 -11 0 -14 -22 -14 -115 0 -124 2 -127 53 -104 19 9 31 7
56 -5 25 -14 31 -23 31 -51 0 -18 -7 -41 -16 -49 -17 -18 -79 -22 -89 -6 -3 5
-13 10 -21 10 -11 0 -14 -22 -14 -115 0 -124 0 -124 56 -103 46 16 84 -9 84
-56 0 -60 -37 -76 -117 -51 -23 7 -23 7 -23 -109 0 -125 0 -125 56 -104 46 16
84 -9 84 -56 0 -60 -37 -76 -118 -51 l-23 7 3 -138 3 -139 1040 -3 1040 -2 -2
800 -2 800 63 0 c52 0 66 4 84 23 20 22 22 33 22 160 l0 137 -86 0 -85 0 1
443 c1 243 1 459 1 480 l-1 37 -517 -2 c-285 -2 -753 -4 -1040 -5z m917 -531
l0 -79 -302 -6 c-166 -4 -346 -7 -400 -7 l-98 0 0 85 0 85 400 0 400 0 0 -78z
m0 -322 l0 -80 -182 -1 c-101 0 -271 -3 -378 -5 -107 -3 -205 -2 -217 1 -21 5
-23 11 -23 85 l0 80 400 0 400 0 0 -80z m0 -320 l0 -80 -400 0 -400 0 0 80 0
80 400 0 400 0 0 -80z"/>
</g>
</svg>
